<?xml version="1.0" standalone="no"?>
<!DOCTYPE svg PUBLIC "-//W3C//DTD SVG 20010904//EN"
 "http://www.w3.org/TR/2001/REC-SVG-20010904/DTD/svg10.dtd">
<svg version="1.0" xmlns="http://www.w3.org/2000/svg"
 width="500.000000pt" height="500.000000pt" viewBox="0 0 500.000000 500.000000"
 preserveAspectRatio="xMidYMid meet">
<metadata>
Created by potrace 1.11, written by Peter Selinger 2001-2013
</metadata>
<g transform="translate(0.000000,500.000000) scale(0.100000,-0.100000)"
fill="#000000" stroke="none">
<path d="M2180 4723 c-17 -29 -30 -55 -30 -58 0 -10 -43 -65 -51 -65 -7 0
-109 80 -137 107 -7 7 -20 13 -27 13 -13 0 -170 -52 -360 -120 -49 -17 -106
-36 -125 -42 -19 -6 -36 -11 -38 -13 -3 -3 -31 -180 -32 -198 0 -13 -57 2
-133 34 -38 16 -74 26 -80 22 -15 -9 -190 -145 -197 -153 -5 -6 -80 -66 -155
-125 -84 -65 -86 -73 -55 -162 23 -66 25 -89 8 -99 -7 -5 -55 -7 -108 -6 l-95
2 -50 -82 c-27 -46 -87 -142 -132 -213 -45 -72 -84 -142 -86 -156 -4 -18 5
-42 26 -75 17 -27 35 -51 39 -54 4 -3 12 -18 18 -34 13 -36 9 -39 -80 -62 -97
-25 -106 -33 -119 -106 -6 -35 -13 -74 -16 -88 -3 -14 -12 -63 -21 -110 -8
-47 -23 -126 -32 -176 l-18 -91 50 -32 c28 -18 67 -45 86 -61 l35 -28 -40 -37
c-22 -20 -59 -48 -82 -63 -27 -17 -41 -33 -38 -42 2 -8 7 -35 10 -60 4 -25 11
-67 16 -95 14 -69 18 -91 30 -160 6 -33 12 -71 15 -85 2 -14 7 -41 10 -60 9
-54 21 -68 67 -80 23 -6 65 -19 92 -28 59 -21 60 -33 12 -100 -56 -78 -59 -87
-43 -124 8 -18 70 -123 138 -233 l125 -200 109 0 109 0 -3 -37 c-1 -20 -9 -56
-17 -79 -28 -79 -34 -70 165 -234 167 -137 237 -188 259 -192 9 -1 45 11 81
27 36 17 76 31 89 32 26 3 32 -11 46 -112 9 -71 13 -77 58 -95 61 -25 476
-165 488 -165 6 0 36 24 68 54 31 30 68 59 82 64 24 9 27 6 68 -74 23 -46 48
-84 54 -85 7 -1 137 -2 289 -3 l277 -1 37 71 c55 105 59 110 88 95 13 -7 48
-35 77 -62 30 -27 58 -49 64 -49 5 1 127 40 270 89 l260 88 7 34 c6 32 16 98
21 144 2 16 9 19 34 18 18 -2 48 -12 67 -22 18 -11 50 -24 69 -29 42 -12 27
-21 232 142 185 148 206 165 225 176 13 8 12 22 -7 112 -12 61 -17 105 -12
109 5 3 54 4 107 2 l98 -4 129 213 c70 117 135 221 142 230 17 19 16 22 -51
122 -34 50 -44 72 -36 81 6 7 47 23 93 35 45 13 85 26 89 29 7 6 50 203 62
286 4 23 8 52 11 65 3 14 10 50 16 80 5 30 12 65 13 78 4 25 -21 49 -96 97
-76 48 -76 55 -2 110 36 26 71 54 80 62 17 17 18 9 -31 268 -8 44 -17 98 -20
120 -4 22 -8 47 -10 55 -3 8 -7 33 -11 55 -3 22 -11 43 -18 48 -10 6 -73 26
-101 31 -42 8 -85 30 -85 43 0 9 22 49 49 89 l50 73 -24 45 c-13 25 -51 88
-84 140 -34 52 -61 97 -61 100 0 2 -25 45 -56 95 l-56 92 -105 -5 c-88 -3
-105 -1 -110 12 -4 8 3 53 14 99 l20 83 -37 33 c-20 17 -52 44 -71 59 -19 14
-99 79 -179 143 -160 128 -149 125 -247 79 -29 -13 -63 -26 -77 -30 -28 -7
-32 2 -41 90 -10 95 -15 101 -103 134 -99 39 -434 152 -447 152 -5 0 -28 -17
-50 -38 -63 -59 -109 -92 -122 -84 -6 4 -30 42 -53 85 -23 42 -45 78 -48 78
-4 1 -132 2 -285 3 l-278 1 -29 -52z m475 -547 c50 -3 101 -8 115 -11 14 -3
52 -10 85 -15 69 -11 213 -52 288 -81 101 -39 113 -44 197 -88 213 -109 437
-290 560 -451 193 -254 316 -518 346 -743 3 -23 10 -62 14 -87 10 -50 6 -372
-5 -435 -3 -22 -19 -92 -35 -155 -133 -522 -483 -927 -990 -1143 -411 -176
-880 -198 -1294 -62 -394 129 -701 360 -930 698 -138 204 -221 423 -262 692
-16 102 -7 465 12 496 2 3 6 21 9 40 37 213 152 458 310 664 279 361 669 588
1150 670 17 3 77 8 135 11 58 3 106 7 107 8 2 2 64 -1 188 -8z"/>
<path d="M2280 3997 c-190 -37 -258 -54 -345 -87 -275 -103 -501 -261 -681
-476 -150 -181 -274 -437 -310 -644 -3 -14 -7 -32 -9 -40 -17 -59 -26 -329
-14 -390 4 -19 10 -55 13 -80 7 -61 15 -99 27 -136 5 -17 12 -42 14 -55 9 -45
75 -204 118 -282 181 -331 510 -612 847 -722 30 -10 64 -21 75 -26 33 -13 185
-47 250 -56 77 -10 383 -10 454 0 584 83 1058 443 1267 962 33 82 58 165 70
229 3 16 7 32 9 36 25 41 25 421 0 532 -2 13 -7 35 -9 50 -7 42 -58 202 -69
216 -5 6 -7 12 -3 12 9 0 -93 195 -139 265 -113 174 -292 346 -480 463 -188
116 -397 190 -645 228 -68 10 -389 11 -440 1z m349 -201 c57 -4 138 -14 180
-22 42 -9 83 -17 91 -19 68 -14 219 -82 227 -101 8 -22 -27 -115 -72 -188
-109 -179 -285 -318 -454 -357 -97 -23 -194 -17 -307 19 -73 23 -192 100 -263
171 -90 90 -208 283 -199 326 2 9 38 32 83 52 172 75 308 109 482 119 59 4
110 8 112 10 2 2 7 2 10 0 3 -2 53 -7 110 -10z m900 -429 c73 -77 154 -191
205 -286 47 -91 111 -268 120 -337 3 -22 8 -55 12 -74 10 -47 9 -305 0 -353
l-7 -39 -88 6 c-332 21 -591 178 -677 411 -14 38 -18 76 -18 160 1 95 5 120
29 185 64 173 192 346 298 402 37 19 38 18 126 -75z m-1830 -73 c145 -155 211
-294 217 -459 3 -85 0 -110 -19 -165 -65 -182 -212 -314 -435 -391 -106 -37
-312 -60 -312 -36 -1 7 -4 39 -8 72 -8 74 -8 323 1 390 18 140 69 281 157 429
53 89 82 128 172 228 l60 67 48 -30 c27 -16 80 -63 119 -105z m482 -254 c24
-13 46 -59 41 -86 -5 -32 -34 -54 -76 -58 -30 -3 -40 1 -61 26 -38 45 -30 87
20 116 25 14 51 15 76 2z m728 -14 c25 -26 31 -77 12 -100 -22 -26 -64 -35
-99 -20 -33 14 -38 21 -46 65 -5 30 0 39 34 62 34 24 73 21 99 -7z m-284 -132
c154 -46 272 -170 303 -319 40 -192 -82 -393 -281 -462 -61 -21 -74 -23 -152
-23 -186 0 -340 109 -405 287 -31 85 -26 202 12 283 50 108 162 202 279 234
64 18 186 18 244 0z m511 -518 c35 -36 34 -94 -3 -122 -44 -33 -116 -7 -128
45 -15 69 82 125 131 77z m-1173 -7 c74 -34 46 -141 -37 -141 -43 0 -61 12
-74 51 -12 35 3 70 38 88 31 16 43 16 73 2z m1522 -284 c87 -26 195 -76 245
-115 l25 -19 -29 -56 c-74 -143 -270 -365 -389 -443 -23 -15 -44 -29 -47 -32
-15 -17 -208 -121 -230 -125 -3 0 -9 -3 -15 -6 -38 -23 -279 -88 -326 -89 -13
0 -22 22 -38 88 -12 48 -25 114 -29 147 -16 129 21 313 85 424 66 114 211 215
353 245 103 23 284 14 395 -19z m-1504 -10 c177 -46 318 -185 378 -372 47
-145 48 -276 5 -448 -16 -62 -16 -63 -47 -60 -227 24 -510 142 -692 289 -128
104 -280 278 -331 378 l-24 46 53 35 c201 133 456 184 658 132z m591 -102 c21
-22 30 -70 17 -94 -5 -10 -22 -25 -37 -33 -23 -12 -32 -12 -59 -1 -63 27 -70
94 -15 132 36 24 67 23 94 -4z"/>
</g>
</svg>
